<svg xmlns="http://www.w3.org/2000/svg" width="15" height="18" viewBox="0 0 21 23" fill="none">
<path d="M7.26221 4.39746H19.4569M19.4569 8.18399C17.794 8.18399 15.0225 8.18399 13.9139 10.7496C12.8053 13.3152 14.191 15.6243 15.5768 16.9071L17.5144 15.5592L18.4858 14.5886L18.9715 13.618L19.4572 12.1622V10.7063L19.4569 8.18399Z" stroke="white" stroke-width="2" stroke-linecap="round" stroke-linejoin="round"/>
<path d="M8.37105 1H18.3485C18.6426 1 18.9245 1.10768 19.1324 1.29934C19.3403 1.491 19.4571 1.75096 19.4571 2.02201V11.3673C19.4571 13.1211 18.5703 14.7742 17.0537 15.8335C15.0349 17.2438 12.3 19.1448 11.1426 19.9072C9.20251 21.1847 5.59952 22.4622 2.828 19.9072C0.0564757 17.3522 0.749357 14.0015 2.828 12.2421C4.90664 10.4827 7.26244 8.74276 7.26244 8.74276V2.02201C7.26244 1.75096 7.37924 1.491 7.58714 1.29934C7.79505 1.10768 8.07703 1 8.37105 1Z" stroke="white" stroke-width="2" stroke-linecap="round" stroke-linejoin="round"/>
</svg>