<svg xmlns="http://www.w3.org/2000/svg" width="15" height="18" viewBox="0 0 19 23" fill="none">
<path d="M4.5 1V4.675M14.5 1V4.675M2.5 15.175H16.5V17.8C14.75 17.8 10.6667 19.375 10.6667 22H7.75C7.75 19.375 4.25 17.8 2.5 17.8V15.175Z" stroke="white" stroke-width="2" stroke-linecap="round" stroke-linejoin="round"/>
<path d="M4 11C5.65685 11 7 9.65685 7 8C7 6.34315 5.65685 5 4 5C2.34315 5 1 6.34315 1 8C1 9.65685 2.34315 11 4 11Z" stroke="white" stroke-width="2" stroke-linecap="round" stroke-linejoin="round"/>
<path d="M14.5 11C16.1569 11 17.5 9.65685 17.5 8C17.5 6.34315 16.1569 5 14.5 5C12.8431 5 11.5 6.34315 11.5 8C11.5 9.65685 12.8431 11 14.5 11Z" stroke="white" stroke-width="2" stroke-linecap="round" stroke-linejoin="round"/>
<path d="M7.14697 8.40039H10.8529" stroke="white" stroke-width="2" stroke-linecap="round" stroke-linejoin="round"/>
</svg>