    <svg
                                                xmlns="http://www.w3.org/2000/svg"
                                                width="15"
                                                height="18"
                                                viewBox="0 0 21 22"
                                                fill="none"
                                              >
                                                <path
                                                  d="M16.8125 10.042V17.2295M16.8125 17.2295V20.5837H4.35417V17.2295M16.8125 17.2295H4.35417M16.8125 17.2295H20.1667V10.042C20.1667 8.60449 19.2083 6.92741 17.7708 5.72949C16.3333 4.53158 14.4167 4.29199 14.4167 4.29199M4.35417 17.2295H1V10.042C1 8.60449 1.95833 6.92741 3.39583 5.72949C4.83333 4.53158 6.75 4.29199 6.75 4.29199M4.35417 17.2295V10.042"
                                                  stroke="white"
                                                  stroke-width="1.5"
                                                  stroke-linecap="round"
                                                  stroke-linejoin="round"
                                                />
                                                <path
                                                  d="M3.39583 5.72949C4.83333 4.53158 6.75 4.29199 6.75 4.29199L10.5836 6.32892L14.4167 4.29199C14.4167 4.29199 16.3333 4.53158 17.7708 5.72949L18.7292 3.57324L17.7708 1.41699L10.5 1L3.39583 1.41699L2.4375 3.57324L3.39583 5.72949Z"
                                                  stroke="white"
                                                  stroke-width="1.5"
                                                  stroke-linecap="round"
                                                  stroke-linejoin="round"
                                                />
                                              </svg>