 <svg
                                                  xmlns="http://www.w3.org/2000/svg"
                                                  width="15"
                                                  height="18"
                                                  viewBox="0 0 21 18"
                                                  fill="none"
                                                >
                                                  <path
                                                    d="M16.7295 6.54297V13.7305M16.7295 13.7305V17.0846H4.27116V13.7305M16.7295 13.7305H20.0837V6.54297C20.0837 5.10547 19.1253 3.42839 17.6878 2.23047C16.2503 1.03255 14.3337 0.792969 14.3337 0.792969M16.7295 13.7305L14 12.502L12.5 14.502L10.5 12.502L8.5 14.502L6.5 12.502L4.27116 13.7305M4.27116 13.7305H0.916992V6.54297C0.916992 5.10547 1.87533 3.42839 3.31283 2.23047C4.75033 1.03255 6.66699 0.792969 6.66699 0.792969M4.27116 13.7305V6.54297"
                                                    stroke="white"
                                                    stroke-width="1.5"
                                                    stroke-linecap="round"
                                                    stroke-linejoin="round"
                                                  />
                                                  <path
                                                    d="M3.31299 2.23047C4.75049 1.03255 6.66716 0.792969 6.66716 0.792969L10.5007 2.8299L14.3338 0.792969C14.3338 0.792969 16.2505 1.03255 17.688 2.23047"
                                                    stroke="white"
                                                    stroke-width="1.5"
                                                    stroke-linecap="round"
                                                    stroke-linejoin="round"
                                                  />
                                                </svg>