<svg xmlns="http://www.w3.org/2000/svg" width="15" height="18" viewBox="0 0 21 27" fill="none">
<path d="M10.5 0C9.68975 0 8.79813 0.151875 8.03863 0.298687C7.294 0.443812 6.74713 0.593437 6.72613 0.597375H6.69987L4.18338 1.143L4.10113 1.15987C3.99037 1.17997 3.88117 1.20344 3.77387 1.23019L3.5 1.28363V1.30163C2.7685 1.50356 1.62312 1.94062 0.95725 2.8485C0.0516249 4.07812 0 5.607 0 5.607V6.75H3.5V14.625H17.5V6.75H21V5.57212C21 5.57212 20.9247 5.09569 20.7812 4.51744C20.6378 3.93975 20.4908 3.30244 19.9885 2.79506C19.3813 2.17202 18.5208 1.66747 17.5 1.33594V1.28306L17.1448 1.21275C17.0931 1.19756 17.1036 1.20656 17.0625 1.19531L16.898 1.15987L14.301 0.597375H14.273C14.2529 0.593437 13.706 0.443813 12.9605 0.29925C12.2019 0.151875 11.3111 0 10.5 0ZM10.5 1.125C10.8798 1.125 11.7477 1.25437 12.4416 1.38881C12.6227 1.42369 12.6122 1.42594 12.7697 1.45912C12.7146 1.51144 12.6735 1.56206 12.6053 1.61719C12.1958 1.94456 11.6209 2.25 10.5 2.25C9.37912 2.25 8.80425 1.94456 8.39475 1.61719C8.3265 1.56206 8.28538 1.51144 8.23025 1.45912C8.38775 1.42594 8.37725 1.42369 8.55838 1.38881C9.25225 1.25437 10.1202 1.125 10.5 1.125ZM6.50738 1.81069C6.63775 1.971 6.80488 2.14256 7.02713 2.32031C7.44419 2.65353 7.97343 2.92158 8.57499 3.10427C9.17654 3.28696 9.83473 3.37953 10.5 3.375C12.1678 3.375 13.3263 2.83669 13.9729 2.32031C14.1951 2.14256 14.3623 1.971 14.4918 1.81069L15.75 2.09194V13.5H5.25V2.09194L6.50738 1.81069ZM3.5 2.56612V5.625H1.75C1.7535 5.59406 1.8865 4.23169 2.54275 3.33956C2.75892 3.03557 3.08757 2.76966 3.5 2.56612ZM17.5 2.65444C17.8211 2.82769 18.1764 3.05381 18.5115 3.39244C18.6515 3.53531 18.9254 4.16587 19.0584 4.6935C19.1852 5.19187 19.243 5.58112 19.25 5.625H17.5V2.65444Z" fill="white"/>
<path d="M4.00083 15.3956C3.99672 15.3447 4.0079 15.2937 4.03369 15.2458C4.05948 15.1979 4.09934 15.1541 4.15083 15.117C4.20231 15.08 4.26435 15.0505 4.33313 15.0304C4.40191 15.0103 4.47599 14.9999 4.55083 15H16.22C16.2948 14.9999 16.3689 15.0103 16.4377 15.0304C16.5065 15.0505 16.5685 15.08 16.62 15.117C16.6715 15.1541 16.7114 15.1979 16.7371 15.2458C16.7629 15.2937 16.7741 15.3447 16.77 15.3956L15.9147 25.8956C15.907 25.9915 15.8457 26.0816 15.7433 26.1476C15.641 26.2135 15.5055 26.2501 15.3647 26.25H12.7082C12.5735 26.25 12.4434 26.2163 12.3427 26.1552C12.242 26.0942 12.1776 26.01 12.1619 25.9187L10.9317 18.7906C10.8557 18.3494 9.91517 18.3494 9.83908 18.7906L8.60892 25.9187C8.59319 26.01 8.52887 26.0942 8.42816 26.1552C8.32745 26.2163 8.19736 26.25 8.06258 26.25H5.40608C5.26531 26.2501 5.12981 26.2135 5.02749 26.1476C4.92517 26.0816 4.86383 25.9915 4.85608 25.8956L4.00083 15.3956V15.3956Z" stroke="white" stroke-width="1.5"/>
</svg>