<svg xmlns="http://www.w3.org/2000/svg" width="15" height="18" viewBox="0 0 23 19" fill="none">
<path d="M18.325 1H4.675V5.65278L1 13.5625L8.875 17.75L11.5 14.9583L14.125 17.75L22 13.5625L18.325 5.65278V1Z" stroke="white" stroke-width="2" stroke-linecap="round" stroke-linejoin="round"/>
<path d="M4.675 4.7207C4.39652 4.7207 4.12945 4.81874 3.93254 4.99326C3.73562 5.16777 3.625 5.40446 3.625 5.65126C3.625 5.89806 3.73562 6.13475 3.93254 6.30926C4.12945 6.48377 4.39652 6.58181 4.675 6.58181V4.7207ZM18.325 6.58181C18.6035 6.58181 18.8705 6.48377 19.0675 6.30926C19.2644 6.13475 19.375 5.89806 19.375 5.65126C19.375 5.40446 19.2644 5.16777 19.0675 4.99326C18.8705 4.81874 18.6035 4.7207 18.325 4.7207V6.58181ZM4.675 6.58181H18.325V4.7207H4.675V6.58181Z" fill="white"/>
<path d="M4.6751 4.7207V5.65126L3.75635 7.62869M18.3251 4.7207V5.65126L19.2438 7.62869L18.3251 4.7207Z" stroke="white" stroke-width="2" stroke-linecap="round" stroke-linejoin="round"/>
</svg>