 <svg
                                                xmlns="http://www.w3.org/2000/svg"
                                                width="15"
                                                height="18"
                                                viewBox="0 0 22 22"
                                                fill="none"
                                              >
                                                <path
                                                  d="M11 0.4375C10.1897 0.4375 9.29813 0.656875 8.53863 0.868937C7.794 1.07856 7.24713 1.29469 7.22613 1.30037H7.19987L4.68338 2.0885L4.60113 2.11287C4.49037 2.14191 4.38117 2.1758 4.27387 2.21444L4 2.29163V2.31763C3.2685 2.60931 2.12312 3.24063 1.45725 4.552C0.551625 6.32812 0.5 8.5365 0.5 8.5365V10.1875H4V21.5625H18V10.1875H21.5V8.48612C21.5 8.48612 21.4247 7.79794 21.2812 6.96269C21.1378 6.12825 20.9907 5.20769 20.4885 4.47481C19.8813 3.57486 19.0208 2.84607 18 2.36719V2.29081L17.6448 2.18925C17.5931 2.16731 17.6036 2.18031 17.5625 2.16406L17.398 2.11287L14.801 1.30037H14.773C14.7529 1.29469 14.206 1.07856 13.4605 0.86975C12.7019 0.656875 11.8111 0.4375 11 0.4375ZM11 2.0625C11.3798 2.0625 12.2478 2.24937 12.9416 2.44356C13.1228 2.49394 13.1123 2.49719 13.2697 2.54513C13.2146 2.62069 13.1735 2.69381 13.1053 2.77344C12.6958 3.24631 12.1209 3.6875 11 3.6875C9.87912 3.6875 9.30425 3.24631 8.89475 2.77344C8.8265 2.69381 8.78538 2.62069 8.73025 2.54513C8.88775 2.49719 8.87725 2.49394 9.05838 2.44356C9.75225 2.24937 10.6202 2.0625 11 2.0625ZM7.00738 3.05294C7.13775 3.2845 7.30487 3.53231 7.52713 3.78906C7.94419 4.27038 8.47343 4.65756 9.07499 4.92145C9.67654 5.18533 10.3347 5.31904 11 5.3125C12.6678 5.3125 13.8263 4.53494 14.4729 3.78906C14.6951 3.53231 14.8623 3.2845 14.9918 3.05294L16.25 3.45919V19.9375H5.75V3.45919L7.00738 3.05294ZM4 4.14412V8.5625H2.25C2.2535 8.51781 2.3865 6.54994 3.04275 5.26131C3.25892 4.82221 3.58757 4.43893 4 4.14494V4.14412ZM18 4.27169C18.3211 4.52194 18.6764 4.84856 19.0115 5.33769C19.1515 5.54406 19.4254 6.45487 19.5584 7.217C19.6852 7.93687 19.743 8.49912 19.75 8.5625H18V4.27169Z"
                                                  fill="white"
                                                />
                                              </svg>