 <svg
                                                  xmlns="http://www.w3.org/2000/svg"
                                                  width="15"
                                                  height="18"
                                                  viewBox="0 0 21 23"
                                                  fill="none"
                                                >
                                                  <path
                                                    d="M1.00125 1.7385C0.995074 1.64339 1.01184 1.54821 1.05053 1.45878C1.08922 1.36936 1.14901 1.28758 1.22624 1.21845C1.30347 1.14931 1.39652 1.09428 1.49969 1.05672C1.60286 1.01916 1.71398 0.999857 1.82625 1H19.33C19.4423 0.999857 19.5534 1.01916 19.6566 1.05672C19.7597 1.09428 19.8528 1.14931 19.93 1.21845C20.0072 1.28758 20.067 1.36936 20.1057 1.45878C20.1444 1.54821 20.1612 1.64339 20.155 1.7385L18.8721 21.3385C18.8605 21.5174 18.7685 21.6857 18.615 21.8088C18.4615 21.9318 18.2583 22.0003 18.0471 22H14.0624C13.8602 22 13.6651 21.9371 13.514 21.8231C13.3629 21.7091 13.2665 21.552 13.2429 21.3817L11.3976 8.07583C11.2835 7.25217 9.87275 7.25217 9.75862 8.07583L7.91337 21.3817C7.88979 21.552 7.7933 21.7091 7.64224 21.8231C7.49117 21.9371 7.29603 22 7.09387 22H3.10912C2.89796 22.0003 2.69471 21.9318 2.54123 21.8088C2.38776 21.6857 2.29574 21.5174 2.28412 21.3385L1.00125 1.7385V1.7385Z"
                                                    stroke="white"
                                                    stroke-width="1.5"
                                                  />
                                                </svg>